<?xml version="1.0" encoding="iso-8859-1"?>
<!-- Generator: Adobe Illustrator 19.0.0, SVG Export Plug-In . SVG Version: 6.00 Build 0)  -->
<svg version="1.1" id="Layer_1" xmlns="http://www.w3.org/2000/svg" xmlns:xlink="http://www.w3.org/1999/xlink" x="0px" y="0px"
	 viewBox="0 0 512 512" style="enable-background:new 0 0 512 512;" xml:space="preserve">
<path style="fill:#FFDAAA;" d="M200.594,98.901c0,0,80.639-22.333,191.475,0l-52.201,296.048c0,0-42.414-13.842-84.683,0
	C255.692,395.598,200.594,98.901,200.594,98.901z"/>
<path style="fill:#3E3D42;" d="M403.692,432.307l-38.3-6.754c-2.745-0.485-4.595-3.126-4.112-5.872l3.7-20.983
	c0.485-2.745,3.126-4.595,5.872-4.112l38.3,6.754c2.745,0.484,4.595,3.126,4.112,5.872l-3.7,20.982
	C409.08,430.941,406.438,432.791,403.692,432.307z"/>
<path style="fill:#2D2D30;" d="M361.281,419.681l3.7-20.982c0.485-2.745,3.126-4.595,5.872-4.112l18.995,3.885
	c-2.745-0.485-5.388,1.367-5.872,4.112l-3.7,20.982c-0.347,1.966,0.516,3.865,2.035,4.97l-16.918-2.983
	C362.646,425.069,360.796,422.427,361.281,419.681z"/>
<path style="fill:#3E3D42;" d="M227.76,427.011l-38.3,6.754c-2.745,0.485-5.388-1.366-5.872-4.112l-3.7-20.982
	c-0.485-2.745,1.367-5.388,4.112-5.872l38.3-6.754c2.745-0.485,5.388,1.367,5.872,4.112l3.7,20.982
	C232.356,423.884,230.505,426.527,227.76,427.011z"/>
<path style="fill:#2D2D30;" d="M231.872,421.139l-3.7-20.982c-0.485-2.745-3.126-4.595-5.872-4.112l-18.995,3.885
	c2.745-0.485,5.388,1.367,5.872,4.112l3.7,20.982c0.347,1.966-0.516,3.865-2.035,4.97l16.917-2.983
	C230.505,426.527,232.356,423.884,231.872,421.139z"/>
<path style="fill:#C6C5CA;" d="M103.489,173.31l-31.65,5.581c-8.237,1.453-16.163-4.099-17.616-12.334l-3.435-19.482
	c-1.453-8.237,4.099-16.163,12.334-17.616l31.65-5.581c8.237-1.453,16.163,4.099,17.616,12.334l3.436,19.482
	C117.276,163.931,111.726,171.858,103.489,173.31z"/>
<path style="fill:#ACABB1;" d="M115.825,155.694l-3.436-19.482c-1.453-8.237-9.379-13.787-17.616-12.334l-24.863,4.384
	c-1.329,6.437-1.452,13.124-0.278,19.778l5.342,30.298l28.516-5.028C111.726,171.858,117.276,163.931,115.825,155.694z"/>
<path style="fill:#C6C5CA;" d="M144.175,404.048l-31.65,5.581c-8.237,1.453-16.163-4.099-17.616-12.334l-3.436-19.482
	c-1.453-8.237,4.099-16.163,12.334-17.616l31.65-5.581c8.237-1.453,16.163,4.099,17.616,12.334l3.436,19.482
	C157.962,394.668,152.411,402.595,144.175,404.048z"/>
<path style="fill:#ACABB1;" d="M153.075,366.95c-1.453-8.237-9.379-13.787-17.616-12.335l-28.516,5.028l5.396,30.604
	c1.166,6.614,3.534,12.747,6.841,18.208l24.995-4.407c8.237-1.453,13.787-9.379,12.334-17.616L153.075,366.95z"/>
<path style="fill:#D80027;" d="M161.754,373.406l-89.917,15.855c-16.472,2.904-32.326-8.197-35.232-24.669L7.111,197.318
	c-2.904-16.472,8.196-32.327,24.669-35.232l89.917-15.855c16.472-2.904,32.326,8.196,35.232,24.669l29.495,167.273
	C189.328,354.647,178.227,370.501,161.754,373.406z"/>
<g>
	<path style="fill:#A5001E;" d="M110.949,382.364l50.805-8.958c16.472-2.904,27.574-18.758,24.669-35.231l-29.495-167.273
		c-2.904-16.472-18.758-27.574-35.232-24.669l-50.805,8.958L110.949,382.364z"/>
	<circle style="fill:#A5001E;" cx="66.015" cy="187.259" r="8.13"/>
	<circle style="fill:#A5001E;" cx="71.216" cy="216.718" r="8.13"/>
	<circle style="fill:#A5001E;" cx="76.406" cy="246.188" r="8.13"/>
	<circle style="fill:#A5001E;" cx="81.607" cy="275.657" r="8.13"/>
	<circle style="fill:#A5001E;" cx="86.797" cy="305.127" r="8.13"/>
	<circle style="fill:#A5001E;" cx="91.997" cy="334.596" r="8.13"/>
	<circle style="fill:#A5001E;" cx="97.188" cy="364.066" r="8.13"/>
	<circle style="fill:#A5001E;" cx="40.544" cy="208.264" r="8.13"/>
	<circle style="fill:#A5001E;" cx="45.74" cy="237.733" r="8.13"/>
	<circle style="fill:#A5001E;" cx="50.931" cy="267.203" r="8.13"/>
	<circle style="fill:#A5001E;" cx="56.131" cy="296.672" r="8.13"/>
	<circle style="fill:#A5001E;" cx="61.332" cy="326.132" r="8.13"/>
	<circle style="fill:#A5001E;" cx="66.522" cy="355.601" r="8.13"/>
</g>
<g>
	<circle style="fill:#E0E0E2;" cx="60.227" cy="184.542" r="8.13"/>
	<circle style="fill:#E0E0E2;" cx="65.427" cy="214.012" r="8.13"/>
	<circle style="fill:#E0E0E2;" cx="70.618" cy="243.481" r="8.13"/>
	<circle style="fill:#E0E0E2;" cx="75.818" cy="272.951" r="8.13"/>
	<circle style="fill:#E0E0E2;" cx="81.012" cy="302.42" r="8.13"/>
	<circle style="fill:#E0E0E2;" cx="86.209" cy="331.89" r="8.13"/>
	<circle style="fill:#E0E0E2;" cx="91.399" cy="361.359" r="8.13"/>
	<circle style="fill:#E0E0E2;" cx="34.751" cy="205.547" r="8.13"/>
	<circle style="fill:#E0E0E2;" cx="39.952" cy="235.016" r="8.13"/>
	<circle style="fill:#E0E0E2;" cx="45.146" cy="264.486" r="8.13"/>
	<circle style="fill:#E0E0E2;" cx="50.343" cy="293.955" r="8.13"/>
	<circle style="fill:#E0E0E2;" cx="55.539" cy="323.425" r="8.13"/>
	<circle style="fill:#E0E0E2;" cx="60.736" cy="352.895" r="8.13"/>
</g>
<path style="fill:#FF3F62;" d="M195.215,92.867l-79.23,13.97c-17.619,3.106-29.492,20.064-26.386,37.683l42.708,242.207
	c3.106,17.619,20.064,29.492,37.683,26.386l79.23-13.97L195.215,92.867z"/>
<polygon style="fill:#D80027;" points="249.219,399.142 195.214,92.867 170.008,97.311 224.937,403.424 "/>
<path style="fill:#E0E0E2;" d="M146.561,142.111l-55.657,9.814l40.097,227.398l55.657-9.814c6.461-1.139,10.814-7.357,9.675-13.817
	l-35.954-203.907C159.239,145.324,153.022,140.971,146.561,142.111z"/>
<path style="fill:#FF3F62;" d="M397.198,94.284l79.23,13.97c17.619,3.106,29.492,20.064,26.386,37.683l-42.708,242.207
	c-3.107,17.619-20.064,29.492-37.683,26.386l-79.23-13.97L397.198,94.284z"/>
<g>
	<circle style="fill:#D80027;" cx="443.28" cy="187.756" r="8.13"/>
	<circle style="fill:#D80027;" cx="438.08" cy="217.215" r="8.13"/>
	<circle style="fill:#D80027;" cx="432.889" cy="246.685" r="8.13"/>
	<circle style="fill:#D80027;" cx="427.689" cy="276.154" r="8.13"/>
	<circle style="fill:#D80027;" cx="422.488" cy="305.624" r="8.13"/>
	<circle style="fill:#D80027;" cx="417.298" cy="335.093" r="8.13"/>
	<circle style="fill:#D80027;" cx="468.219" cy="208.659" r="8.13"/>
	<circle style="fill:#D80027;" cx="463.018" cy="238.129" r="8.13"/>
	<circle style="fill:#D80027;" cx="457.828" cy="267.598" r="8.13"/>
	<circle style="fill:#D80027;" cx="452.627" cy="297.068" r="8.13"/>
	<circle style="fill:#D80027;" cx="447.437" cy="326.537" r="8.13"/>
	<polygon style="fill:#D80027;" points="422.404,98.566 368.399,404.841 343.193,400.397 398.122,94.284 	"/>
</g>
<g>
	<circle style="fill:#E0E0E2;" cx="437.735" cy="183.366" r="8.13"/>
	<circle style="fill:#E0E0E2;" cx="432.535" cy="212.836" r="8.13"/>
	<circle style="fill:#E0E0E2;" cx="427.344" cy="242.305" r="8.13"/>
	<circle style="fill:#E0E0E2;" cx="422.144" cy="271.775" r="8.13"/>
	<circle style="fill:#E0E0E2;" cx="416.953" cy="301.244" r="8.13"/>
	<circle style="fill:#E0E0E2;" cx="411.753" cy="330.714" r="8.13"/>
	<circle style="fill:#E0E0E2;" cx="462.673" cy="204.28" r="8.13"/>
	<circle style="fill:#E0E0E2;" cx="457.473" cy="233.749" r="8.13"/>
	<circle style="fill:#E0E0E2;" cx="452.282" cy="263.219" r="8.13"/>
	<circle style="fill:#E0E0E2;" cx="447.082" cy="292.688" r="8.13"/>
	<circle style="fill:#E0E0E2;" cx="441.892" cy="322.158" r="8.13"/>
</g>
<g>
	<path style="fill:#57565C;" d="M468.388,160.047l-23.118-4.076c-2.745-0.484-4.595-3.126-4.112-5.872l2.477-14.042
		c0.484-2.745,3.126-4.595,5.872-4.112l23.118,4.076c2.745,0.484,4.595,3.126,4.112,5.872l-2.476,14.042
		C473.775,158.681,471.133,160.531,468.388,160.047z"/>
	<path style="fill:#57565C;" d="M428.346,387.136l-23.118-4.076c-2.745-0.485-4.595-3.126-4.112-5.872l2.476-14.042
		c0.485-2.745,3.126-4.595,5.872-4.112l23.118,4.076c2.745,0.485,4.595,3.126,4.112,5.872l-2.476,14.042
		C433.733,385.77,431.091,387.62,428.346,387.136z"/>
</g>
<g>
	<path style="fill:#3E3D42;" d="M414.749,379.707l2.477-14.042c0.485-2.745,3.126-4.595,5.872-4.112l-13.633-2.519
		c-2.745-0.485-5.388,1.367-5.872,4.112l-2.476,14.042c-0.485,2.745,1.367,5.388,4.112,5.872l12.617,2.224
		C415.676,384.407,414.327,382.098,414.749,379.707z"/>
	<path style="fill:#3E3D42;" d="M454.79,152.618l2.477-14.042c0.485-2.745,3.126-4.595,5.872-4.112l-13.633-2.519
		c-2.745-0.485-5.388,1.367-5.872,4.112l-2.476,14.042c-0.485,2.745,1.367,5.388,4.112,5.872l12.617,2.225
		C455.718,157.318,454.369,155.009,454.79,152.618z"/>
</g>
<path d="M475.185,100.137l0.285-1.617c1.817-10.304-5.088-20.164-15.392-21.981l-24.026-4.236
	c-10.304-1.817-20.164,5.088-21.982,15.392l-0.285,1.616l-20.746-3.659c0,0-3.994-1.047-5.584,4.412
	c-7.03-1.314-14.078-2.478-21.136-3.494c-0.654-3.044-3.143-5.498-6.406-5.94c-3.29-0.458-6.371,1.286-7.796,4.096
	c-15.955-1.845-31.938-2.923-47.875-3.243c-1.279-2.395-3.803-4.027-6.708-4.027c-2.87,0-5.367,1.591-6.661,3.938
	c-3.627,0.025-7.251,0.077-10.869,0.181c-4.197,0.122-7.501,3.623-7.379,7.821c0.122,4.198,3.612,7.481,7.821,7.379
	c3.158-0.092,6.321-0.141,9.486-0.169v284.728c-2.348,0.106-4.734,0.27-7.155,0.496L244.498,99.251
	c2.062-0.228,4.186-0.448,6.382-0.657c4.18-0.397,7.247-4.108,6.851-8.288s-4.106-7.23-8.288-6.851
	c-2.631,0.249-5.162,0.515-7.605,0.791c-1.52-2.519-4.438-4.033-7.534-3.616c-3.07,0.417-5.457,2.612-6.274,5.405
	c-11.653,1.717-20.019,3.497-24.552,4.564c-1.121-3.598-4.76-5.892-8.57-5.219l-14.028,2.474l-0.285-1.616
	c-1.817-10.304-11.677-17.208-21.981-15.392l-24.026,4.236c-10.304,1.817-17.208,11.678-15.392,21.981l0.285,1.616
	c0,0-20.62,1.469-30.71,18.715l-25.954,4.577c-12.386,2.184-20.684,14.037-18.501,26.422l0.674,3.823l-13.516,2.383
	c-9.966,1.757-35.845,10.597-30.836,44.039l24.767,140.455c1.82,6.887,8.361,6.246,8.807,6.167c4.135-0.729,6.897-4.672,6.167-8.807
	L15.612,195.998c-2.184-12.386,6.116-24.239,18.503-26.423l51.593-9.097l37.416,212.199l-51.594,9.097
	c-12.375,2.177-24.239-6.115-26.423-18.503c-0.73-4.135-4.675-6.903-8.807-6.167c-4.135,0.729-6.938,4.68-6.167,8.807
	c7.229,38.698,41.827,31.226,44.039,30.836l13.515-2.383c0,0,2.387,27.479,27.172,22.75l25.703-4.532
	c14.392,12.978,34.633,7.511,34.633,7.511l1.919,10.879c1.082,6.14,6.441,10.472,12.473,10.472c0.728,0,1.465-0.064,2.206-0.194
	l38.301-6.753c6.88-1.212,11.492-7.799,10.278-14.679l-1.918-10.88l13.099-2.309c2.261-0.398,4.106-1.761,5.198-3.588
	c0,0,9.575-3.149,13.238-3.922c2.016,5.996,7.785,4.807,8.103,4.764c3.61-0.489,6.278-3.437,6.556-6.926
	c1.79-0.157,3.562-0.276,5.312-0.361c0.277,3.948,3.558,7.066,7.576,7.066c3.996,0,7.266-3.084,7.573-7.002
	c1.524,0.084,3.012,0.188,4.464,0.308c0.283,3.483,2.949,6.425,6.554,6.913c0.319,0.044,6.274,0.438,8.157-5
	c3.294,0.584,6.113,1.19,8.354,1.723c0.208,2.097,1.279,3.997,2.915,5.262l20.66,4.528l-1.404,7.965
	c-1.213,6.881,3.398,13.467,10.279,14.679l38.299,6.753c0.74,0.131,1.483,0.195,2.219,0.195c2.575,0,5.088-0.787,7.245-2.299
	c2.776-1.943,4.628-4.847,5.215-8.174l1.404-7.966c0,0,41.13,6.987,49.137-32.085l2.073-11.757c0.73-4.136-2.032-8.08-6.167-8.807
	c-4.138-0.73-8.079,2.033-8.807,6.167l-2.073,11.757c-3.171,19.814-22.358,21.37-28.875,20.218l-71.743-12.651l51.364-291.301
	l71.742,12.651c22.155,4.344,21.369,22.354,20.219,28.875l-25.206,142.946c-0.73,4.135,2.032,8.08,6.167,8.807
	c4.148,0.736,8.079-2.033,8.807-6.167l25.206-142.946C517.876,105.724,475.185,100.137,475.185,100.137z M403.53,424.379
	l-33.308-5.873l0.964-5.469l33.309,5.873L403.53,424.379z M326.52,383.782l38.211-282.076c6.59,0.958,13.172,2.046,19.738,3.27
	L335.004,385.51C332.615,384.953,329.763,384.355,326.52,383.782z M305.138,381.37V96.71c14.817,0.334,29.677,1.341,44.515,3.036
	L311.445,381.8C309.41,381.622,307.305,381.477,305.138,381.37z M135.213,94.239c-0.255-1.448,0.751-2.885,2.199-3.141l24.026-4.236
	c1.448-0.255,2.885,0.751,3.141,2.199l0.285,1.616l-29.364,5.178L135.213,94.239z M138.183,370.514l-1.827-10.358l39.501-6.965
	c4.113-0.726,6.859-4.646,6.133-8.76c-0.726-4.114-4.646-6.858-8.76-6.133l-39.502,6.965l-2.57-14.577l39.502-6.965
	c4.113-0.725,6.859-4.646,6.133-8.76c-0.725-4.113-4.646-6.858-8.76-6.133l-39.502,6.965l-2.57-14.577l39.502-6.965
	c4.113-0.725,6.858-4.646,6.133-8.76c-0.725-4.113-4.646-6.859-8.76-6.133l-39.502,6.965l-2.57-14.577l39.502-6.965
	c4.113-0.725,6.859-4.646,6.133-8.76c-0.725-4.113-4.646-6.859-8.76-6.133l-39.502,6.965l-2.57-14.576l39.502-6.965
	c4.113-0.725,6.859-4.646,6.133-8.76c-0.725-4.113-4.646-6.859-8.76-6.133l-39.502,6.965l-2.57-14.577l39.502-6.965
	c4.113-0.725,6.859-4.646,6.133-8.76c-0.725-4.113-4.646-6.859-8.759-6.133l-39.502,6.965l-2.57-14.577l39.502-6.965
	c4.113-0.725,6.859-4.646,6.133-8.759c-0.725-4.113-4.646-6.859-8.759-6.133l-39.502,6.965l-1.827-10.359l48.17-8.493
	c3.525-0.451,4.809,2.383,5.008,3.509l35.954,203.907c0.407,2.307-1.2,4.601-3.508,5.009L138.183,370.514z M59.29,145.753
	c-0.728-4.128,2.039-8.08,6.168-8.807l17.367-3.063c-0.475,3.776-0.411,7.68,0.249,11.619l-23.111,4.075L59.29,145.753z
	 M112.218,402.14c-4.13,0.722-8.081-2.04-8.807-6.167l-0.749-4.25l23.102-4.073c0,0,1.996,8,3.728,11.444L112.218,402.14z
	 M169.682,405.626c-6.52,1.151-13.127-0.328-18.601-4.161c-0.995-0.696-1.928-1.457-2.798-2.271
	c-0.055-0.057-0.117-0.108-0.173-0.163c-3.802-3.623-6.345-8.316-7.285-13.54l48.168-8.493c10.606-1.87,17.712-12.02,15.841-22.625
	l-35.954-203.906c-0.903-5.125-3.758-9.598-8.039-12.596c-4.282-2.999-9.455-4.149-14.586-3.247l-48.167,8.493
	c-2.334-13.505,6.723-26.41,20.231-28.791l75.934-13.39c1.386,7.464,51.608,278.608,53.798,290.834L169.682,405.626z
	 M224.957,419.963l-33.308,5.873l-1.479-8.384l33.31-5.874L224.957,419.963z M210.405,104.635
	c4.387-0.945,10.821-2.195,19.015-3.425l38.316,282.851c-1.824,0.374-3.653,0.776-5.49,1.238
	C262.022,384.06,214.235,125.268,210.405,104.635z M430.089,90.518c0.255-1.448,1.693-2.454,3.141-2.199l24.026,4.236
	c1.448,0.255,2.454,1.693,2.199,3.141l-0.285,1.617l-29.365-5.178L430.089,90.518z"/>
<path d="M474.507,312.222c-4.135-0.731-8.079,2.033-8.807,6.167l-5.127,29.073c-0.73,4.136,2.032,8.08,6.167,8.807
	c0.447,0.079,7.46,0.694,8.807-6.167l5.127-29.073C481.403,316.894,478.642,312.951,474.507,312.222z"/>
<path d="M470.277,167.727c6.164,0,11.415-4.404,12.483-10.471l2.476-14.042c0.587-3.328-0.16-6.691-2.105-9.466
	c-1.943-2.775-4.847-4.627-8.174-5.214l-23.118-4.076c-0.725-0.128-1.464-0.193-2.198-0.193c-6.163,0-11.413,4.405-12.482,10.472
	l-2.476,14.042c-1.213,6.881,3.398,13.467,10.278,14.679l23.121,4.077C468.805,167.663,469.544,167.727,470.277,167.727z
	 M451.694,139.873l18.127,3.196l-1.596,9.051l-18.127-3.196L451.694,139.873z"/>
<path d="M434.917,355.624l-23.119-4.076c-0.725-0.128-12.487-1.299-14.679,10.279l-2.476,14.042
	c-1.213,6.881,3.398,13.467,10.278,14.679l23.119,4.076c0.724,0.128,12.2,1.623,14.679-10.279l2.476-14.042
	c0.587-3.328-0.16-6.69-2.104-9.465C441.146,358.062,438.244,356.21,434.917,355.624z M428.184,379.208l-18.127-3.196l1.596-9.051
	l18.127,3.196L428.184,379.208z"/>
<g>
</g>
<g>
</g>
<g>
</g>
<g>
</g>
<g>
</g>
<g>
</g>
<g>
</g>
<g>
</g>
<g>
</g>
<g>
</g>
<g>
</g>
<g>
</g>
<g>
</g>
<g>
</g>
<g>
</g>
</svg>
