<svg xmlns="http://www.w3.org/2000/svg" viewBox="0 0 64 64">
    <defs>
        <style>
            .cls-2{fill:#d2dad8}.cls-3{fill:#2f4f59}.cls-4{fill:#fab00b}.cls-6{fill:none;stroke:#000;stroke-linecap:round;stroke-linejoin:round;stroke-width:2px}.cls-8,.cls-9{mix-blend-mode:overlay}.cls-9{fill:#fff}
        </style>
    </defs>
    <g style="isolation:isolate">
        <g id="Layer_1" data-name="Layer 1">
            <g id="Vector">
                <path class="cls-2" d="m52.98 34.77-8.64-4.66v23.84h12.12v-17.3l-3.48-1.88zM11.03 34.77l8.63-4.66v23.84H7.54v-17.3l3.49-1.88z"/>
                <path class="cls-3" d="m61.36 36.88-4.9-2.69L53 32.26l-8.64-4.75v2.6L53 34.87l3.48 1.91.66.36 2.35 1.31c.92.5 2.37.1 2.37-.66v-.26a.81.81 0 0 0-.5-.65zM2.64 36.88l4.9-2.69L11 32.26l8.64-4.75v2.6L11 34.87l-3.46 1.91-.66.36-2.35 1.31c-.92.5-2.37.1-2.37-.66v-.26a.81.81 0 0 1 .48-.65z"/>
                <path class="cls-3" d="M49.72 26.52v.42A1.43 1.43 0 0 1 47.35 28L45 25.88l-.66-.58-3.48-3.11L32 14.27l-8.86 7.92-3.48 3.11-.66.58L16.65 28a1.43 1.43 0 0 1-2.37-1.06v-.42a1.43 1.43 0 0 1 .48-1.06l4.9-4.37L23.14 18 32 10.05 40.86 18l3.48 3.12 4.9 4.37a1.43 1.43 0 0 1 .48 1.03z"/>
                <path class="cls-2" d="M44.34 25.3v28.65H19.66V25.3l3.48-3.11L32 14.27l8.86 7.92 3.48 3.11z"/>
                <path class="cls-4" d="M30.5 36.62h3a4.58 4.58 0 0 1 4.58 4.58v12.75H25.92V41.2a4.58 4.58 0 0 1 4.58-4.58z"/>
                <rect class="cls-4" x="10.56" y="39.53" width="6.08" height="9.69" rx="3.04"/>
                <rect class="cls-4" x="47.37" y="39.53" width="6.08" height="9.69" rx="3.04"/>
                <path style="fill:#602b0b" d="M37.03 23.47v2.54h-3.76v6.15h-2.54v-6.15h-3.76v-2.54h3.76v-2.33h2.54v2.33h3.76z"/>
            </g>
            <g id="Line">
                <path class="cls-6" d="m52.98 34.77-8.64-4.66v23.84h12.12v-17.3l-3.48-1.88zM11.03 34.77l8.63-4.66v23.84H7.54v-17.3l3.49-1.88z"/>
                <path class="cls-6" d="m61.36 36.88-4.9-2.69L53 32.26l-8.64-4.75v2.6L53 34.87l3.48 1.91.66.36 2.35 1.31c.92.5 2.37.1 2.37-.66v-.26a.81.81 0 0 0-.5-.65zM2.64 36.88l4.9-2.69L11 32.26l8.64-4.75v2.6L11 34.87l-3.46 1.91-.66.36-2.35 1.31c-.92.5-2.37.1-2.37-.66v-.26a.81.81 0 0 1 .48-.65z"/>
                <path class="cls-6" d="M49.72 26.52v.42A1.43 1.43 0 0 1 47.35 28L45 25.88l-.66-.58-3.48-3.11L32 14.27l-8.86 7.92-3.48 3.11-.66.58L16.65 28a1.43 1.43 0 0 1-2.37-1.06v-.42a1.43 1.43 0 0 1 .48-1.06l4.9-4.37L23.14 18 32 10.05 40.86 18l3.48 3.12 4.9 4.37a1.43 1.43 0 0 1 .48 1.03z"/>
                <path class="cls-6" d="M44.34 25.3v28.65H19.66V25.3l3.48-3.11L32 14.27l8.86 7.92 3.48 3.11z"/>
                <path class="cls-6" d="M30.5 36.62h3a4.58 4.58 0 0 1 4.58 4.58v12.75h0-12.16 0V41.2a4.58 4.58 0 0 1 4.58-4.58z"/>
                <rect class="cls-6" x="10.56" y="39.53" width="6.08" height="9.69" rx="3.04"/>
                <rect class="cls-6" x="47.37" y="39.53" width="6.08" height="9.69" rx="3.04"/>
                <path class="cls-6" d="M37.03 23.47v2.54h-3.76v6.15h-2.54v-6.15h-3.76v-2.54h3.76v-2.33h2.54v2.33h3.76z"/>
            </g>
            <g id="Shadow" style="opacity:.25;mix-blend-mode:multiply">
                <path d="M32.11 15.55a10 10 0 0 1 2.57 2.14 24.88 24.88 0 0 0 2.52 2.51c.9.8 1.8 1.56 2.8 2.28.74.56 1.53 1.05 2.26 1.62a7.2 7.2 0 0 1 1.89 2 2.45 2.45 0 0 1 .22.5v-1.3l.66.58L47.35 28a1.43 1.43 0 0 0 2.37-1.06v-.42a1.43 1.43 0 0 0-.48-1.06l-4.9-4.37L40.86 18 32 10.05l-4.23 3.79 2.87 2.56a1 1 0 0 1 1.47-.85zM61.36 36.88l-4.9-2.69L53 32.26l-8.42-4.64v.6a11.79 11.79 0 0 1-.23 3.68.87.87 0 0 1 .33-.33l.24-.11a1.19 1.19 0 0 1 .53 0l.24.11a.68.68 0 0 1 .28.25.75.75 0 0 1 .06.13h2V54h8.46V36.78l.66.36 2.35 1.31c.92.5 2.37.1 2.37-.66v-.26a.81.81 0 0 0-.51-.65z"/>
            </g>
            <g id="Highligth" class="cls-8">
                <g class="cls-8">
                    <path class="cls-9" d="m19.76 25.46 4.9-4.37L28.14 18l6.36-5.68-2.5-2.27L23.14 18l-3.48 3.12-4.9 4.37a1.43 1.43 0 0 0-.48 1.06v.42A1.43 1.43 0 0 0 16.65 28L19 25.88l.66-.58v.27a.52.52 0 0 1 .1-.11zM12.54 34.19l-1.37.41-3.11 1.9a1.54 1.54 0 0 1-.13 1.61 1 1 0 0 1-.39.26V54h5z"/>
                    <path class="cls-9" d="M20.63 28.34a1.42 1.42 0 0 1-1.16-.73L11 32.26l-3.46 1.93-4.9 2.69a.81.81 0 0 0-.48.65v.26c0 .76 1.45 1.16 2.37.66l2.35-1.31.66-.36V37l.1-.07 4.9-2.69L16 32.26l4.65-2.56a5.63 5.63 0 0 1-.02-1.36z"/>
                </g>
            </g>
        </g>
    </g>
</svg>