<?xml version="1.0" encoding="iso-8859-1"?>
<!-- Generator: Adobe Illustrator 19.0.0, SVG Export Plug-In . SVG Version: 6.00 Build 0)  -->
<svg version="1.1" id="Layer_1" xmlns="http://www.w3.org/2000/svg" xmlns:xlink="http://www.w3.org/1999/xlink" x="0px" y="0px"
	 viewBox="0 0 512 512" style="enable-background:new 0 0 512 512;" xml:space="preserve">
<path style="fill:#787680;" d="M488.174,366.307H23.826c-8.922,0-16.222-7.3-16.222-16.222V212.574
	c0-8.922,7.3-16.222,16.222-16.222h464.349c8.922,0,16.222,7.3,16.222,16.222v137.511
	C504.396,359.007,497.096,366.307,488.174,366.307z"/>
<g>
	<path style="fill:#57565C;" d="M33.751,350.085V212.574c0-8.922,7.3-16.222,16.222-16.222H23.826
		c-8.922,0-16.222,7.3-16.222,16.222v137.511c0,8.922,7.3,16.222,16.222,16.222h26.147C41.05,366.307,33.751,359.007,33.751,350.085
		z"/>
	<rect x="478.249" y="226.587" style="fill:#57565C;" width="26.147" height="26.146"/>
</g>
<rect x="33.751" y="226.587" style="fill:#E0E0E2;" width="26.146" height="112.762"/>
<rect x="59.899" y="226.587" style="fill:#FFFFFF;" width="26.146" height="112.762"/>
<rect x="86.046" y="226.587" style="fill:#E0E0E2;" width="26.146" height="112.762"/>
<rect x="112.194" y="226.587" style="fill:#FFFFFF;" width="26.146" height="112.762"/>
<rect x="138.341" y="226.587" style="fill:#E0E0E2;" width="26.146" height="112.762"/>
<rect x="164.489" y="226.587" style="fill:#FFFFFF;" width="26.146" height="112.762"/>
<rect x="190.636" y="226.587" style="fill:#E0E0E2;" width="26.146" height="112.762"/>
<rect x="216.784" y="226.587" style="fill:#FFFFFF;" width="26.146" height="112.762"/>
<rect x="242.921" y="226.587" style="fill:#E0E0E2;" width="26.146" height="112.762"/>
<rect x="269.069" y="226.587" style="fill:#FFFFFF;" width="26.146" height="112.762"/>
<rect x="295.216" y="226.587" style="fill:#E0E0E2;" width="26.146" height="112.762"/>
<rect x="321.364" y="226.587" style="fill:#FFFFFF;" width="26.146" height="112.762"/>
<rect x="347.511" y="226.587" style="fill:#E0E0E2;" width="26.146" height="112.762"/>
<rect x="373.659" y="226.587" style="fill:#FFFFFF;" width="26.146" height="112.762"/>
<rect x="399.806" y="226.587" style="fill:#E0E0E2;" width="26.146" height="112.762"/>
<rect x="425.954" y="226.587" style="fill:#FFFFFF;" width="26.146" height="112.762"/>
<rect x="452.101" y="226.587" style="fill:#E0E0E2;" width="26.146" height="112.762"/>
<rect x="33.751" y="226.587" style="fill:#C6C5CA;" width="26.146" height="26.146"/>
<rect x="59.899" y="226.587" style="fill:#E0E0E2;" width="26.146" height="26.146"/>
<rect x="86.046" y="226.587" style="fill:#C6C5CA;" width="26.146" height="26.146"/>
<rect x="112.194" y="226.587" style="fill:#E0E0E2;" width="26.146" height="26.146"/>
<rect x="138.341" y="226.587" style="fill:#C6C5CA;" width="26.146" height="26.146"/>
<rect x="164.489" y="226.587" style="fill:#E0E0E2;" width="26.146" height="26.146"/>
<rect x="190.636" y="226.587" style="fill:#C6C5CA;" width="26.146" height="26.146"/>
<rect x="216.784" y="226.587" style="fill:#E0E0E2;" width="26.146" height="26.146"/>
<rect x="242.921" y="226.587" style="fill:#C6C5CA;" width="26.146" height="26.146"/>
<rect x="269.069" y="226.587" style="fill:#E0E0E2;" width="26.146" height="26.146"/>
<rect x="295.216" y="226.587" style="fill:#C6C5CA;" width="26.146" height="26.146"/>
<rect x="321.364" y="226.587" style="fill:#E0E0E2;" width="26.146" height="26.146"/>
<rect x="347.511" y="226.587" style="fill:#C6C5CA;" width="26.146" height="26.146"/>
<rect x="373.659" y="226.587" style="fill:#E0E0E2;" width="26.146" height="26.146"/>
<rect x="399.806" y="226.587" style="fill:#C6C5CA;" width="26.146" height="26.146"/>
<rect x="425.954" y="226.587" style="fill:#E0E0E2;" width="26.146" height="26.146"/>
<rect x="452.101" y="226.587" style="fill:#C6C5CA;" width="26.146" height="26.146"/>
<path style="fill:#3E3D42;" d="M484.786,145.692H27.214c-10.785,0-19.61,8.825-19.61,19.61v61.282h496.792v-61.282
	C504.396,154.517,495.571,145.692,484.786,145.692z"/>
<g>
	<path style="fill:#2D2D30;" d="M52.24,145.692H27.214c-10.785,0-19.61,8.825-19.61,19.61v61.282H32.63v-61.282
		C32.63,154.517,41.455,145.692,52.24,145.692z"/>
	<path style="fill:#2D2D30;" d="M69.023,213.079H48.959c-1.673,0-3.042-1.369-3.042-3.042v-17.572c0-1.673,1.369-3.042,3.042-3.042
		h20.063c1.673,0,3.042,1.369,3.042,3.042v17.572C72.064,211.71,70.696,213.079,69.023,213.079z"/>
	<path style="fill:#2D2D30;" d="M104.828,213.079H84.764c-1.673,0-3.042-1.369-3.042-3.042v-17.572c0-1.673,1.369-3.042,3.042-3.042
		h20.063c1.673,0,3.042,1.369,3.042,3.042v17.572C107.87,211.71,106.501,213.079,104.828,213.079z"/>
	<path style="fill:#2D2D30;" d="M140.633,213.079h-20.063c-1.673,0-3.042-1.369-3.042-3.042v-17.572
		c0-1.673,1.369-3.042,3.042-3.042h20.063c1.673,0,3.042,1.369,3.042,3.042v17.572C143.674,211.71,142.307,213.079,140.633,213.079z
		"/>
	<path style="fill:#2D2D30;" d="M176.438,213.079h-20.064c-1.673,0-3.042-1.369-3.042-3.042v-17.572
		c0-1.673,1.369-3.042,3.042-3.042h20.064c1.673,0,3.042,1.369,3.042,3.042v17.572C179.48,211.71,178.111,213.079,176.438,213.079z"
		/>
	<path style="fill:#2D2D30;" d="M475.208,213.079h-20.063c-1.673,0-3.042-1.369-3.042-3.042v-17.572
		c0-1.673,1.369-3.042,3.042-3.042h20.063c1.673,0,3.042,1.369,3.042,3.042v17.572C478.25,211.71,476.881,213.079,475.208,213.079z"
		/>
	<path style="fill:#2D2D30;" d="M440.06,213.079h-20.064c-1.673,0-3.042-1.369-3.042-3.042v-17.572c0-1.673,1.369-3.042,3.042-3.042
		h20.064c1.673,0,3.042,1.369,3.042,3.042v17.572C443.102,211.71,441.733,213.079,440.06,213.079z"/>
	<path style="fill:#2D2D30;" d="M189.236,177.04H53.522c-4.199,0-7.604-3.405-7.604-7.604c0-4.199,3.405-7.604,7.604-7.604h135.715
		c4.199,0,7.604,3.405,7.604,7.604C196.84,173.635,193.436,177.04,189.236,177.04z"/>
</g>
<g>
	<circle style="fill:#57565C;" cx="199.731" cy="201.251" r="5.31"/>
	<circle style="fill:#57565C;" cx="218.487" cy="201.251" r="5.31"/>
	<circle style="fill:#57565C;" cx="237.244" cy="201.251" r="5.31"/>
	<circle style="fill:#57565C;" cx="256" cy="201.251" r="5.31"/>
	<circle style="fill:#57565C;" cx="472.936" cy="174.749" r="5.31"/>
	<circle style="fill:#57565C;" cx="454.352" cy="174.749" r="5.31"/>
	<circle style="fill:#57565C;" cx="435.768" cy="174.749" r="5.31"/>
</g>
<path d="M484.786,138.088h-43.711c-4.199,0-7.604,3.405-7.604,7.604c0,4.199,3.405,7.604,7.604,7.604h43.711
	c6.621,0,12.006,5.387,12.006,12.006v53.678H15.208v-53.678c0-6.621,5.387-12.006,12.006-12.006h281.081
	c4.199,0,7.604-3.405,7.604-7.604c0-4.199-3.405-7.604-7.604-7.604H27.214C12.209,138.088,0,150.296,0,165.303v184.782
	c0,13.138,10.688,23.826,23.826,23.826h57.897c4.199,0,7.604-3.405,7.604-7.604c0-4.199-3.405-7.604-7.604-7.604H23.826
	c-4.752,0-8.618-3.866-8.618-8.618V234.188h9.818v105.155c0,4.199,3.405,7.604,7.604,7.604h445.618c4.199,0,7.604-3.405,7.604-7.604
	V234.188h10.94v115.898c0,4.752-3.866,8.618-8.618,8.618H121.378c-4.199,0-7.604,3.405-7.604,7.604s3.405,7.604,7.604,7.604h366.796
	c13.138,0,23.826-10.688,23.826-23.826V165.303C512,150.296,499.791,138.088,484.786,138.088z M138.338,294.131
	c4.199,0,7.604-3.405,7.604-7.604v-52.339h10.939v52.339c0,4.199,3.405,7.604,7.604,7.604c4.199,0,7.604-3.405,7.604-7.604v-52.339
	h10.94v52.339c0,4.199,3.405,7.604,7.604,7.604s7.604-3.405,7.604-7.604v-52.339h10.939v97.551h-89.38v-97.551h10.94v52.339
	C130.734,290.726,134.139,294.131,138.338,294.131z M224.384,234.188h10.94v52.339c0,4.199,3.405,7.604,7.604,7.604
	c4.199,0,7.604-3.405,7.604-7.604v-52.339h10.939v52.339c0,4.199,3.405,7.604,7.604,7.604c4.199,0,7.604-3.405,7.604-7.604v-52.339
	h10.94v97.551h-63.233v-97.551H224.384z M302.824,234.188h10.94v52.339c0,4.199,3.405,7.604,7.604,7.604s7.604-3.405,7.604-7.604
	v-52.339h10.94v52.339c0,4.199,3.405,7.604,7.604,7.604c4.199,0,7.604-3.405,7.604-7.604v-52.339h10.94v52.339
	c0,4.199,3.405,7.604,7.604,7.604c4.199,0,7.604-3.405,7.604-7.604v-52.339h10.94v97.551h-89.38v-97.551H302.824z M40.234,234.188
	h12.06v52.339c0,4.199,3.405,7.604,7.604,7.604s7.604-3.405,7.604-7.604v-52.339h10.94v52.339c0,4.199,3.405,7.604,7.604,7.604
	c4.199,0,7.604-3.405,7.604-7.604v-52.339h10.939v97.551H40.234V234.188z M470.645,331.739h-63.233v-97.551h10.939v52.339
	c0,4.199,3.405,7.604,7.604,7.604s7.604-3.405,7.604-7.604v-52.339h10.94v52.339c0,4.199,3.405,7.604,7.604,7.604
	c4.199,0,7.604-3.405,7.604-7.604v-52.339h10.94v97.551H470.645z"/>
<path d="M349.613,153.296h45.286c4.199,0,7.604-3.405,7.604-7.604c0-4.199-3.405-7.604-7.604-7.604h-45.286
	c-4.199,0-7.604,3.405-7.604,7.604C342.009,149.892,345.413,153.296,349.613,153.296z"/>
<g>
</g>
<g>
</g>
<g>
</g>
<g>
</g>
<g>
</g>
<g>
</g>
<g>
</g>
<g>
</g>
<g>
</g>
<g>
</g>
<g>
</g>
<g>
</g>
<g>
</g>
<g>
</g>
<g>
</g>
</svg>
