<?xml version="1.0" encoding="iso-8859-1"?>
<!-- Generator: Adobe Illustrator 19.0.0, SVG Export Plug-In . SVG Version: 6.00 Build 0)  -->
<svg version="1.1" id="Layer_1" xmlns="http://www.w3.org/2000/svg" xmlns:xlink="http://www.w3.org/1999/xlink" x="0px" y="0px"
	 viewBox="0 0 511.999 511.999" style="enable-background:new 0 0 511.999 511.999;" xml:space="preserve">
<rect x="236.07" y="440.24" style="fill:#3E3D42;" width="39.853" height="70.333"/>
<rect x="236.07" y="440.24" style="fill:#2D2D30;" width="17.062" height="64.048"/>
<path style="fill:#57565C;" d="M256,404.11L256,404.11c-47.944,0-87.171-39.227-87.171-87.171V94.874
	c0-47.944,39.227-87.171,87.171-87.171l0,0c47.944,0,87.171,39.227,87.171,87.171V316.94C343.171,364.884,303.944,404.11,256,404.11
	z"/>
<path style="fill:#2D2D30;" d="M206.188,316.94V94.874c0-41.534,29.448-76.507,68.492-85.12c-6.025-1.329-12.27-2.051-18.679-2.051
	l0,0c-47.944,0-87.171,39.227-87.171,87.171V316.94c0,47.943,39.227,87.171,87.171,87.171l0,0c6.409,0,12.654-0.722,18.679-2.051
	C235.636,393.447,206.188,358.475,206.188,316.94z"/>
<path style="fill:#FFE477;" d="M168.83,227.901v89.039c0,47.944,39.227,87.171,87.171,87.171l0,0
	c47.943,0,87.171-39.227,87.171-87.171v-89.039H168.83z"/>
<g>
	<path style="fill:#FFD422;" d="M206.188,316.94v-89.039h-37.359v89.039c0,47.944,39.227,87.171,87.171,87.171l0,0
		c6.409,0,12.654-0.721,18.679-2.05C235.636,393.446,206.188,358.475,206.188,316.94z"/>
	<rect x="168.829" y="247.83" style="fill:#FFD422;" width="174.344" height="22.986"/>
	<path style="fill:#FFD422;" d="M256,375.866c-4.255,0-7.703-3.449-7.703-7.703s3.448-7.703,7.703-7.703
		c23.996,0,43.52-19.523,43.52-43.52c0-4.254,3.448-7.703,7.703-7.703s7.703,3.449,7.703,7.703
		C314.926,349.431,288.493,375.866,256,375.866z"/>
</g>
<path style="fill:#DDB200;" d="M338.19,247.826H173.811c-11.301,0-20.547-9.247-20.547-20.547l0,0
	c0-11.301,9.247-20.547,20.547-20.547H338.19c11.301,0,20.547,9.247,20.547,20.547l0,0
	C358.738,238.579,349.491,247.826,338.19,247.826z"/>
<path style="fill:#CCA400;" d="M190.622,227.279c0-11.301,9.247-20.547,20.547-20.547H173.81c-11.301,0-20.547,9.247-20.547,20.547
	c0,11.301,9.247,20.547,20.547,20.547h37.359C199.868,247.826,190.622,238.579,190.622,227.279z"/>
<g>
	<path style="fill:#3E3D42;" d="M272.296,95.652l-9.078-9.078c-1.998-1.998-1.998-5.266,0-7.262l9.078-9.078
		c1.998-1.998,5.266-1.998,7.262,0l9.078,9.078c1.997,1.998,1.997,5.266,0,7.262l-9.078,9.078
		C277.561,97.65,274.292,97.65,272.296,95.652z"/>
	<path style="fill:#3E3D42;" d="M272.296,130.059l-9.078-9.078c-1.997-1.998-1.997-5.266,0-7.262l9.078-9.078
		c1.998-1.998,5.266-1.998,7.262,0l9.078,9.078c1.997,1.998,1.997,5.266,0,7.262l-9.078,9.078
		C277.561,132.057,274.292,132.057,272.296,130.059z"/>
	<path style="fill:#3E3D42;" d="M238.162,130.059l-9.078-9.078c-1.998-1.998-1.998-5.266,0-7.262l9.078-9.078
		c1.998-1.998,5.265-1.998,7.262,0l9.078,9.078c1.998,1.998,1.998,5.266,0,7.262l-9.078,9.078
		C243.427,132.057,240.159,132.057,238.162,130.059z"/>
	<path style="fill:#3E3D42;" d="M308.003,130.059l-9.078-9.078c-1.998-1.998-1.998-5.266,0-7.262l9.078-9.078
		c1.997-1.998,5.265-1.998,7.262,0l9.078,9.078c1.997,1.998,1.997,5.266,0,7.262l-9.078,9.078
		C313.267,132.057,309.999,132.057,308.003,130.059z"/>
	<path style="fill:#3E3D42;" d="M238.162,167.547l-9.078-9.078c-1.998-1.998-1.998-5.265,0-7.262l9.078-9.078
		c1.998-1.998,5.265-1.998,7.262,0l9.078,9.078c1.998,1.998,1.998,5.265,0,7.262l-9.078,9.078
		C243.427,169.544,240.159,169.544,238.162,167.547z"/>
	<path style="fill:#3E3D42;" d="M250.189,71.516l-9.078-9.078c-1.998-1.998-1.998-5.265,0-7.262l9.078-9.078
		c1.998-1.998,5.266-1.998,7.262,0l9.078,9.078c1.998,1.998,1.998,5.265,0,7.262l-9.078,9.078
		C255.455,73.514,252.187,73.514,250.189,71.516z"/>
</g>
<path d="M302.983,30.896c5.483,4.046,10.269,8.926,14.737,14.079c3.754,4.329,9.408,2.288,10.836,1.131
	c3.304-2.68,3.81-7.531,1.131-10.834c-5.117-6.309-11.023-11.952-17.556-16.772c-3.423-2.526-8.246-1.798-10.772,1.626
	C298.833,23.547,299.56,28.371,302.983,30.896z"/>
<path d="M398.743,220.198h-10.509v-13.467c0-4.254-3.448-7.703-7.703-7.703s-7.703,3.449-7.703,7.703v13.467h-7.286
	c-2.056-7.939-7.49-14.528-14.667-18.15V94.874c0-10.93-1.866-21.662-5.547-31.899c-1.44-4.002-5.849-6.079-9.856-4.642
	c-4.002,1.44-6.081,5.852-4.642,9.856c3.078,8.559,4.639,17.537,4.639,26.684v104.154H176.533V94.874
	c0-43.819,35.649-79.468,79.468-79.468c7.394,0,14.721,1.027,21.777,3.054c4.087,1.175,8.356-1.187,9.53-5.277
	c1.174-4.089-1.188-8.356-5.278-9.53C273.591,1.229,264.833,0,255.999,0c-52.313,0-94.873,42.56-94.873,94.874v107.173
	c-7.177,3.622-12.611,10.211-14.667,18.15h-7.286V206.73c0-4.254-3.448-7.703-7.703-7.703s-7.703,3.449-7.703,7.703v13.467h-10.51
	c-4.255,0-7.703,3.449-7.703,7.703s3.448,7.703,7.703,7.703h10.51v81.336c0,63.404,44.858,116.519,104.502,129.298v50.356h-23.279
	c-4.255,0-7.703,3.449-7.703,7.703c0,4.254,3.448,7.703,7.703,7.703h102.021c4.255,0,7.703-3.449,7.703-7.703
	c0-4.254-3.448-7.703-7.703-7.703H283.63v-50.334c59.694-12.741,104.603-65.881,104.603-129.32v-81.336h10.509
	c4.255,0,7.703-3.449,7.703-7.703C406.446,223.647,402.997,220.198,398.743,220.198z M173.811,214.434H338.19
	c7.083,0,12.844,5.762,12.844,12.844c0,7.083-5.762,12.844-12.844,12.844H173.811c-7.083,0-12.844-5.762-12.844-12.844
	C160.966,220.196,166.728,214.434,173.811,214.434z M268.225,496.594h-24.549v-48.001c4.059,0.377,8.168,0.579,12.325,0.579
	c4.122,0,8.198-0.199,12.224-0.57V496.594z M372.827,316.939c0,64.418-52.408,116.826-116.827,116.826
	c-64.418,0-116.826-52.408-116.826-116.826v-81.336h7.64c2.281,7.382,7.515,13.474,14.313,16.905v18.302
	c0,4.254,3.448,7.703,7.703,7.703s7.703-3.449,7.703-7.703v-15.283h158.935v61.411c0,43.819-35.649,79.468-79.468,79.468
	s-79.467-35.649-79.467-79.468v-12.925c0-4.254-3.448-7.703-7.703-7.703s-7.703,3.449-7.703,7.703v12.925
	c0,52.313,42.559,94.874,94.874,94.874c52.313,0,94.873-42.56,94.873-94.874v-64.431c6.798-3.431,12.032-9.524,14.313-16.905h7.64
	V316.939z"/>
<g>
</g>
<g>
</g>
<g>
</g>
<g>
</g>
<g>
</g>
<g>
</g>
<g>
</g>
<g>
</g>
<g>
</g>
<g>
</g>
<g>
</g>
<g>
</g>
<g>
</g>
<g>
</g>
<g>
</g>
</svg>
